<?xml version="1.0" standalone="no"?>
<!DOCTYPE svg PUBLIC "-//W3C//DTD SVG 20010904//EN"
 "http://www.w3.org/TR/2001/REC-SVG-20010904/DTD/svg10.dtd">
<svg version="1.0" xmlns="http://www.w3.org/2000/svg"
 width="520.000000pt" height="520.000000pt" viewBox="0 0 520.000000 520.000000"
 preserveAspectRatio="xMidYMid meet">
<metadata>
Created by potrace 1.11, written by Peter Selinger 2001-2013
</metadata>
<g transform="translate(0.000000,520.000000) scale(0.100000,-0.100000)"
fill="#000000" stroke="none">
<path d="M2298 5185 c-489 -59 -952 -255 -1333 -562 -121 -97 -326 -306 -417
-423 -358 -463 -548 -1017 -548 -1600 0 -583 190 -1137 548 -1600 91 -117 296
-326 417 -423 749 -605 1759 -746 2654 -371 311 131 591 323 841 580 139 142
224 247 323 399 556 854 556 1976 0 2830 -99 152 -184 257 -323 399 -427 437
-961 700 -1569 771 -152 18 -445 18 -593 0z m612 -580 c735 -121 1338 -615
1593 -1305 87 -234 120 -429 120 -700 0 -219 -11 -313 -59 -505 -179 -706
-753 -1280 -1459 -1459 -192 -48 -286 -59 -505 -59 -219 0 -313 11 -505 59
-706 179 -1280 753 -1459 1459 -48 192 -59 286 -59 505 0 219 11 313 59 505
143 562 538 1050 1062 1310 237 118 436 173 752 209 72 8 368 -4 460 -19z"/>
<path d="M2417 3604 c-486 -88 -837 -509 -837 -1004 0 -566 454 -1020 1020
-1020 566 0 1020 454 1020 1020 0 440 -281 831 -697 969 -148 49 -349 63 -506
35z"/>
</g>
</svg>
